<?xml version="1.0" encoding="UTF-8"?>
<svg version="1.1" xmlns="http://www.w3.org/2000/svg" width="163" height="136">
<path d="M0 0 C53.79 0 107.58 0 163 0 C163 44.88 163 89.76 163 136 C109.21 136 55.42 136 0 136 C0 91.12 0 46.24 0 0 Z " fill="#070707" transform="translate(0,0)"/>
<path d="M0 0 C24.42 0 48.84 0 74 0 C74 6.6 74 13.2 74 20 C70.37 20 66.74 20 63 20 C63 17.36 63 14.72 63 12 C46.17 12 29.34 12 12 12 C12.020625 19.425 12.04125 26.85 12.0625 34.5 C12.04521851 37.99303711 12.04521851 37.99303711 12.02758789 41.55664062 C12.0482099 43.42320929 12.07139709 45.28975213 12.09765625 47.15625 C12.08343628 48.10854492 12.06921631 49.06083984 12.05456543 50.04199219 C12.18947836 56.51110915 13.67590732 59.78638812 18.23725891 64.39433289 C20.48696832 66.44357565 22.72020432 68.44511043 25.125 70.3125 C25.93195313 70.94800781 26.73890625 71.58351563 27.5703125 72.23828125 C28.37210938 72.81964844 29.17390625 73.40101562 30 74 C30.80179688 74.59167969 31.60359375 75.18335937 32.4296875 75.79296875 C35.82406395 77.38698444 37.43118738 77.0665417 41 76 C48.78983368 71.79205295 58.6820206 65.68707334 62 57 C62.28878735 54.59162245 62.49045026 52.17189532 62.625 49.75 C62.810625 46.40875 62.810625 46.40875 63 43 C55.08 43 47.16 43 39 43 C39 49.93 39 56.86 39 64 C33.3625 61.745 33.3625 61.745 30.75 58.5 C29.99976563 57.58734375 29.99976563 57.58734375 29.234375 56.65625 C23.34236022 48.75050865 27 44.81805111 27 31 C42.51 31 58.02 31 74 31 C74.103125 35.785 74.20625 40.57 74.3125 45.5 C74.35802002 46.99337891 74.40354004 48.48675781 74.45043945 50.02539062 C74.53110376 57.76500121 74.23111289 63.10006473 69 69 C67.98873047 70.26070312 67.98873047 70.26070312 66.95703125 71.546875 C61.67374274 76.97451566 56.01265102 81.32191914 49.75 85.5625 C48.98147705 86.0874707 48.2129541 86.61244141 47.42114258 87.15332031 C39.87853262 92.10149513 39.87853262 92.10149513 35 92 C32.10546875 90.59375 32.10546875 90.59375 29.1875 88.5 C28.14207031 87.75621094 27.09664062 87.01242188 26.01953125 86.24609375 C25.02308594 85.50488281 24.02664062 84.76367188 23 84 C22.19949219 83.41347656 21.39898437 82.82695313 20.57421875 82.22265625 C18.33559751 80.53275567 16.16182842 78.78701053 14 77 C13.12988281 76.2884375 12.25976562 75.576875 11.36328125 74.84375 C10.48027344 74.0909375 9.59726562 73.338125 8.6875 72.5625 C7.88699219 71.88316406 7.08648437 71.20382813 6.26171875 70.50390625 C-0.57032709 62.94027692 -0.55017115 55.8750596 -0.390625 46.09375 C-0.38659668 44.92231445 -0.38256836 43.75087891 -0.37841797 42.54394531 C-0.35759461 38.1958027 -0.30174963 33.84788452 -0.25 29.5 C-0.1675 19.765 -0.085 10.03 0 0 Z " fill="#DF6139" transform="translate(42,37)"/>
</svg>
